<svg width="1192" height="529" viewBox="0 0 1192 529" fill="none" xmlns="http://www.w3.org/2000/svg">
<path d="M975.352 276.035L718.613 291.942L777.996 271.964L424.766 280.933L691.679 292.859C691.679 292.859 341.153 309.003 232.659 306.945C288.186 293.532 344.295 285.774 400.49 283.739C351.244 277.696 62.7742 271.657 13.5278 265.614C66.9171 263.619 486.555 243.423 539.94 241.428C428.018 236.841 316.046 233.657 204.101 229.894C156.112 228.282 97.5262 240.025 56.1954 206.812C194.063 183.664 331.927 160.52 469.794 137.371C391.219 136.472 312.662 133.867 234.17 129.556C164.67 125.735 95.0261 120.551 26.5871 105.784C267.393 85.5926 508.666 73.1277 750.046 68.3983C558.751 57.4075 367.347 49.1332 175.894 43.1569C101.828 40.8456 27.5086 38.8861 -46.1723 48.0555C-58.2498 49.5563 -70.7011 51.5158 -81.1358 58.8415C-93.4814 67.5077 -101.499 82.6534 -107.576 98.0085C-118.388 125.33 -124.51 157.198 -115.944 185.61C-106.994 215.296 -84.0626 235.496 -62.117 253.465C-33.3395 277.023 -4.15794 299.9 25.3975 322.082C45.4473 337.13 66.3469 352.164 89.7881 356.764C103.931 359.539 118.482 358.39 132.592 361.4C146.799 364.429 160.096 371.572 173.858 376.715C201.284 386.967 228.09 388.797 255.508 380.763C287.065 371.514 322.901 371.719 355.266 368.744C422.617 362.558 490.127 359.338 557.618 356.114C642.134 352.08 726.654 348.045 811.17 344.01C821.835 343.502 832.824 342.883 842.538 336.123C853.781 328.303 870.333 326.656 882.811 323.311C907.336 316.742 931.861 309.822 956.481 303.797C973.158 299.717 989.684 303.04 1006.17 299.628C1027.47 295.215 1048.27 278.319 1065.9 264.367C1070.76 260.519 1075.7 256.311 1078.48 250.236C1080.84 245.084 1081.4 239.036 1081.21 233.189C1080.55 213.835 1071.91 195.657 1059.97 182.363C1048.02 169.07 1032.99 160.213 1017.54 153.599C964.483 130.865 906.407 133.092 849.993 135.599C780.791 138.681 711.585 141.758 642.383 144.84C748.671 155.773 854.57 172.86 958.973 198.756C919.18 204.505 879.393 218.6 839.709 219.629C810.599 220.386 781.637 227.444 752.584 229.569C700.463 233.385 648.343 237.197 596.222 241.014C664.106 247.097 853.275 256.729 921.306 256.729" fill="#FFF19F" fill-opacity="0.44"/>
<path d="M732.763 419.341C779.5 372.583 779.5 296.774 732.763 250.017C686.027 203.259 610.252 203.259 563.516 250.017C516.78 296.774 516.78 372.583 563.516 419.341C610.252 466.098 686.027 466.098 732.763 419.341Z" fill="url(#paint0_linear_103_37)"/>
<path d="M-112.423 533.414L21.9401 414.422C53.3333 398.609 74.0307 400.234 111.778 402.965C127.877 404.13 149.794 402.924 165.946 403.556C181.254 404.157 207.938 405.126 223.259 405.126C280.655 405.126 310.072 405.669 365.895 407.239C402.169 408.256 443.069 411.279 481.329 414.099C481.342 414.099 481.351 414.099 481.364 414.099C481.784 414.13 482.204 414.161 482.624 414.192C482.89 414.209 483.15 414.23 483.416 414.25C483.69 414.267 483.955 414.288 484.229 414.309C484.503 414.329 484.782 414.35 485.056 414.371C485.277 414.388 485.498 414.405 485.715 414.419C485.852 414.429 485.989 414.439 486.122 414.45C486.86 414.505 487.599 414.556 488.333 414.614C488.509 414.625 488.691 414.639 488.868 414.652C489.248 414.68 489.624 414.707 490 414.735C490.229 414.752 490.459 414.769 490.689 414.783C490.999 414.807 491.304 414.831 491.609 414.851C499.015 415.394 506.297 415.923 513.398 416.421C555.112 419.331 596.763 422.715 638.321 426.69C638.321 426.69 638.326 426.69 638.335 426.69C652.753 430.053 1177.67 404.38 1189.02 407.129C1200.39 409.874 1170.24 532.572 1161.54 538.34C1119.7 566.105 542.21 528.649 493.059 530.247C464.929 531.16 -15.7893 535.75 -112.414 533.411" fill="#BC452A"/>
<g clip-path="url(#clip0_103_37)">
<path d="M140.567 241.596L287.166 322.787L339.247 304.062V181.177L140.567 241.596Z" fill="url(#paint1_linear_103_37)"/>
<path d="M339.247 181.177V304.062L491.244 249.339L339.247 181.177Z" fill="#BA8557"/>
<path d="M287.166 322.787L140.567 241.595V406.063L287.166 497.716V322.787Z" fill="url(#paint2_linear_103_37)"/>
<path d="M287.167 322.787V497.716L491.244 414.812V249.339L287.167 322.787Z" fill="url(#paint3_linear_103_37)"/>
<path d="M140.567 241.596L117.263 158.766L315.905 102.888L339.247 181.176L140.567 241.596Z" fill="url(#paint4_linear_103_37)"/>
<path d="M385.445 122.022L539.564 165.354L491.244 249.338L339.247 181.176L385.445 122.022Z" fill="url(#paint5_linear_103_37)"/>
<path d="M540.085 166.77L539.564 165.355L491.244 249.339L498.317 238.245L540.085 166.77Z" fill="url(#paint6_linear_103_37)"/>
<path d="M230.433 144.47L191.568 204.703L352.351 262.777L390.21 195.545L230.433 144.47Z" fill="url(#paint7_linear_103_37)"/>
<path d="M366.05 217.585C362.849 216.728 359.908 215.723 356.855 214.532C357.041 211.554 356.967 208.65 353.802 207.087C352.462 208.501 349.968 212.41 348.628 215.239C349 215.537 349.335 215.909 349.782 216.17C351.085 216.915 352.425 217.547 353.691 218.404C354.919 219.223 356.148 220.153 357.19 221.196C359.61 223.504 360.205 226.37 359.051 229.423C356.855 235.156 352.835 238.916 346.729 240.219C343.193 240.963 339.731 240.628 336.231 239.958C335.375 239.809 334.519 239.623 333.663 239.437C332.285 240.814 331.652 242.638 330.35 244.016C329.084 244.053 328.004 243.495 326.813 242.973C326.887 241.968 327.558 241.335 327.967 240.591C328.377 239.846 328.86 239.102 329.419 238.208C328.935 237.873 328.563 237.538 328.153 237.278C326.664 236.347 325.063 235.565 323.686 234.486C319.703 231.321 318.474 227.115 319.628 222.201C319.963 220.749 320.41 219.334 321.266 217.957C322.83 217.883 324.133 218.664 325.547 219.074C326.962 219.52 328.377 220.004 329.903 220.488C329.828 221.196 329.754 221.791 329.679 222.387C328.935 226.259 330.201 228.678 333.998 230.502C335.301 229.311 335.934 227.673 336.901 226.221C337.832 224.844 338.651 223.392 339.582 221.866C339.098 221.456 338.726 221.084 338.316 220.823C337.199 220.116 335.971 219.558 334.891 218.813C333.737 218.031 332.62 217.138 331.615 216.17C329.158 213.75 328.6 210.884 329.791 207.682C331.913 201.987 336.082 198.711 341.964 197.482C345.315 196.775 348.628 197.036 351.904 197.743C352.648 197.892 353.43 198.003 354.249 198.115C355.254 196.626 356.185 195.249 357.153 193.834C358.419 194.169 359.61 194.355 360.764 195.137C359.945 196.552 359.163 197.892 358.307 199.381C358.716 199.716 359.089 200.051 359.535 200.311C360.727 201.056 362.03 201.652 363.146 202.471C367.502 205.598 368.805 209.655 367.279 214.755C367.13 215.277 366.943 215.761 366.757 216.245C366.534 216.654 366.348 216.952 366.05 217.585ZM338.018 232.14C340.587 233.257 342.858 233.183 345.091 232.178C346.134 231.694 346.99 230.912 347.548 229.87C348.144 228.79 348.218 227.673 347.399 226.668C346.283 225.328 344.98 224.248 343.118 223.764C341.331 226.519 339.656 229.125 338.018 232.14ZM349.372 205.523C349.186 205.374 349.037 205.151 348.814 205.076C347.102 204.518 345.352 204.481 343.639 204.816C342.411 205.039 341.406 205.747 340.661 206.789C339.768 208.092 339.768 209.395 340.773 210.623C341.778 211.852 343.081 212.708 344.458 213.304C345.985 211.815 348.628 207.571 349.372 205.523Z" fill="#FF1414"/>
<path d="M308.386 184.341C310.805 184.378 314.305 185.123 317.618 186.761C318.735 187.282 319.777 187.952 320.745 188.696C324.319 191.414 325.957 195.062 325.659 199.492C325.547 201.242 325.287 203.029 324.691 204.667C322.048 212 317.544 217.994 310.88 222.126C306.673 224.732 302.057 226.072 297.069 225.849C292.676 225.663 288.544 224.471 284.933 221.903C281.098 219.222 279.237 215.5 279.46 210.809C279.535 209.32 279.907 207.868 280.168 206.379C280.242 205.932 280.428 205.523 280.577 205.113C283.109 198.413 287.204 192.903 293.085 188.808C297.329 185.867 302.243 184.341 308.386 184.341ZM297.776 218.776C298.707 218.627 299.675 218.515 300.605 218.292C303.435 217.659 305.78 216.133 307.865 214.197C310.917 211.33 313.225 207.943 314.789 204.034C315.31 202.731 315.645 201.353 315.868 199.976C316.352 196.551 314.714 193.685 311.513 192.345C310.396 191.898 309.167 191.6 307.939 191.488C304.44 191.153 301.387 192.419 298.67 194.541C294.463 197.817 291.559 202.061 289.735 207.012C289.214 208.427 288.916 209.878 288.991 211.405C289.139 213.973 290.219 215.946 292.453 217.249C294.128 218.18 295.878 218.664 297.776 218.776Z" fill="#FF1414"/>
<path d="M266.059 171.014C269.595 170.939 272.909 171.758 276.073 173.21C277.674 173.955 279.126 174.922 280.391 176.188C282.997 178.757 284.039 181.921 283.891 185.532C283.816 187.58 283.407 189.553 282.662 191.451C280.056 198.003 275.998 203.401 270.154 207.384C265.649 210.437 260.698 211.963 255.226 211.703C252.285 211.554 249.493 210.846 246.813 209.618C241.191 207.086 237.283 202.098 238.995 194.132C239.032 193.871 239.107 193.61 239.181 193.35C242.048 184.378 247.446 177.528 255.896 173.247C259.098 171.684 262.522 170.902 266.059 171.014ZM265.649 177.826C265.24 177.863 264.644 177.938 264.011 178.05C261.257 178.533 258.874 179.836 256.789 181.623C253.178 184.713 250.535 188.51 248.86 192.94C248.376 194.243 248.116 195.658 248.004 197.035C247.781 200.125 249.307 202.47 252.136 203.736C253.849 204.481 255.635 204.778 257.534 204.592C260.14 204.332 262.448 203.289 264.495 201.726C268.814 198.45 271.755 194.132 273.653 189.106C274.212 187.617 274.435 186.053 274.323 184.453C274.137 182.182 273.095 180.469 271.122 179.278C269.521 178.31 267.734 177.901 265.649 177.826Z" fill="#FF1414"/>
<path d="M232.927 173.88C230.135 172.912 227.678 172.056 225.072 171.125C225.407 169.86 226.189 169.003 226.747 168.036C227.306 167.142 227.901 166.286 228.497 165.318C229.353 165.541 230.098 165.69 230.842 165.876C234.565 166.956 237.99 166.621 240.931 163.941C241.861 163.084 242.718 163.01 243.797 163.457C245.175 164.015 246.626 164.425 247.967 164.871C248.227 165.802 247.632 166.323 247.296 166.882C242.792 174.029 238.25 181.139 233.709 188.25C231.438 191.823 229.167 195.36 226.896 198.934C226.412 199.678 225.928 200.386 225.37 201.205C222.615 200.758 220.195 199.641 217.515 198.748C218.222 197.035 219.19 195.77 220.009 194.467C220.828 193.126 221.722 191.786 222.578 190.446C223.471 189.031 224.365 187.617 225.258 186.202C226.114 184.862 226.971 183.559 227.827 182.219C228.683 180.879 229.539 179.539 230.358 178.198C231.214 176.858 232.22 175.63 232.927 173.88Z" fill="#FF1414"/>
<path d="M552.817 170.306L356.297 231.172L287.166 322.787L491.244 249.339L553.785 171.498L552.817 170.306Z" fill="url(#paint8_linear_103_37)"/>
<path d="M287.166 322.788L356.855 233.183L356.296 231.173L287.166 322.788Z" fill="url(#paint9_linear_103_37)"/>
<path d="M552.816 170.306L356.296 231.172L356.855 233.182L553.784 171.498L552.816 170.306Z" fill="url(#paint10_linear_103_37)"/>
<path d="M273.839 251.982L97.2724 175.332L96.0067 176.076L235.496 283.401L272.611 252.726L273.839 251.982Z" fill="url(#paint11_linear_103_37)"/>
<path d="M287.799 322.564L273.839 251.982L272.61 252.726L235.495 283.401L282.55 320.219L287.166 322.787L287.799 322.564Z" fill="url(#paint12_linear_103_37)"/>
<path d="M96.0067 176.076L140.567 241.595L287.241 323.233L272.611 252.726L96.0067 176.076Z" fill="url(#paint13_linear_103_37)"/>
<path d="M476.055 289.58C476.204 289.841 476.353 289.953 476.353 290.101C476.353 305.886 476.577 321.67 476.204 337.417C475.832 354.094 476.093 370.772 475.72 387.487C475.236 387.747 474.901 388.008 474.529 388.157C419.284 410.977 364.04 433.76 308.795 456.58C308.572 456.654 308.311 456.617 308.051 456.617C307.455 455.835 307.678 454.979 307.678 454.16C307.678 449.023 307.678 443.923 307.678 438.785C307.678 427.692 307.939 416.635 307.641 405.542C307.195 388.082 307.604 370.66 307.455 353.201C307.455 352.047 307.492 350.856 307.53 349.851C308.386 348.92 309.428 348.771 310.359 348.436C324.728 343.299 339.098 338.199 353.467 333.098C393.561 318.841 433.654 304.546 473.747 290.288C474.529 290.027 475.311 289.804 476.055 289.58ZM440.094 316.458C440.467 316.756 440.727 316.905 440.913 317.128C443.482 320.553 446.051 323.978 448.619 327.366C449.103 328.036 449.215 328.706 449.215 329.487C449.215 331.237 449.178 333.024 449.215 334.774C449.215 335.258 449.326 335.704 449.401 336.188C451.374 336.039 455.097 334.625 456.846 333.396C456.846 331.572 456.884 329.674 456.846 327.738C456.809 326.286 457.107 324.946 457.777 323.643C460.495 318.171 463.138 312.661 465.781 307.151C466.004 306.667 466.563 306.221 466.041 305.439C465.706 305.513 465.297 305.513 464.925 305.662C463.51 306.146 462.095 306.742 460.681 307.189C459.378 307.561 458.596 308.343 458.038 309.608C456.809 312.549 455.432 315.416 454.092 318.319C453.831 318.915 453.459 319.436 453.049 320.144C450.964 317.5 449.55 314.597 447.465 312.14C447.056 312.251 446.758 312.289 446.423 312.4C436.744 315.9 427.065 319.436 417.386 322.936C416.939 323.084 416.53 323.382 416.009 323.68C416.083 325.876 415.711 327.998 416.232 330.306C416.865 330.158 417.349 330.083 417.795 329.934C419.359 329.376 420.96 328.78 422.523 328.259C422.97 328.11 423.417 328.073 424.087 327.924C424.087 330.046 424.087 331.982 424.087 333.88C424.087 335.89 424.049 337.901 424.087 339.911C424.124 341.81 423.863 343.745 424.273 345.718C424.645 345.718 425.017 345.83 425.278 345.718C427.437 344.862 429.708 344.267 431.83 343.038C431.979 336.97 431.867 330.939 432.016 324.834C433.356 324.313 434.622 323.829 435.85 323.345C437.153 322.824 438.568 322.6 439.648 321.707C440.094 319.995 439.536 318.282 440.094 316.458ZM373.793 352.233C373.831 350.372 373.607 348.548 372.825 346.835C371.895 344.713 370.368 343.299 368.098 342.629C366.273 342.07 364.449 342.107 362.625 342.442C358.53 343.187 354.77 344.825 351.42 347.319C346.878 350.744 343.937 355.174 343.044 360.87C342.709 363.14 342.783 365.374 343.416 367.608C344.384 370.958 346.916 373.006 350.378 373.154C351.792 373.229 353.244 373.192 354.622 372.931C359.051 372 363.035 370.102 366.46 367.161C371.113 363.215 373.644 358.301 373.793 352.233ZM403.5 336.561C403.612 335.332 403.128 334.29 402.421 333.322C401.639 332.279 400.597 331.572 399.368 331.2C397.991 330.753 396.576 330.604 395.124 330.828C389.466 331.721 384.552 334.066 380.569 338.199C376.846 342.07 375.059 346.761 375.133 352.121C375.171 353.983 375.506 355.807 376.288 357.482C377.516 360.051 379.526 361.465 382.43 361.577C384.85 361.689 387.083 361.093 389.242 360.088C392.481 358.599 394.864 356.179 396.651 353.126C396.911 352.68 396.986 352.047 397.656 351.935C398.289 353.126 397.954 354.541 398.847 355.732C400.448 355.211 402.048 354.839 403.575 353.759C403.575 351.377 403.649 348.957 403.575 346.537C403.538 344.155 403.873 341.735 403.314 339.055C398.437 340.879 393.71 342.48 388.982 344.453C388.945 345.942 388.907 347.356 388.945 348.771C388.945 349.143 389.168 349.515 389.317 349.888C391.402 349.478 393.114 348.324 395.161 348.064C395.124 348.399 395.199 348.585 395.124 348.696C393.672 351.191 391.476 352.605 388.758 353.201C386.711 353.648 385.036 352.68 384.328 350.818C384.142 350.334 383.993 349.851 383.956 349.367C383.696 346.091 384.664 343.224 387.083 340.953C388.088 340.023 389.28 339.427 390.583 339.055C392.221 338.534 393.71 339.018 395.087 340.023C397.73 339.055 400.299 338.087 402.905 337.082C403.091 336.97 403.24 336.747 403.5 336.561ZM319.33 385.514C320.001 385.365 320.559 385.253 321.08 385.067C328.19 382.312 335.338 379.781 342.523 376.877C342.523 374.83 342.56 372.931 342.523 370.995C342.523 370.586 342.411 370.176 342.337 369.581C341.518 369.841 340.81 370.027 340.103 370.251C336.864 371.442 333.663 372.671 330.424 373.862C329.642 374.16 328.861 374.346 327.893 374.681C327.855 373.638 327.818 372.782 327.818 371.963C327.818 367.422 327.818 362.917 327.818 358.375C327.818 357.556 328.004 356.7 327.52 355.956C325.808 356.03 321.564 357.482 319.33 358.785C319.07 360.684 318.884 379.334 319.107 384.174C319.144 384.62 319.256 384.993 319.33 385.514ZM344.421 407.329C344.384 407.552 344.272 407.775 344.272 408.036C344.272 413.583 344.235 419.092 344.235 424.639C344.235 424.937 344.421 425.235 344.533 425.644C345.017 425.57 345.464 425.607 345.836 425.458C348.181 424.527 350.527 423.597 352.797 422.592C354.808 421.698 356.557 420.358 357.935 418.608C360.429 415.444 361.583 411.833 360.764 407.813C360.057 404.276 357.674 402.675 354.175 403.457C350.899 404.164 347.846 405.579 344.794 406.956C344.682 407.031 344.57 407.18 344.421 407.329ZM414.147 349.664C414.147 341.474 414.147 333.322 414.147 325.206C414.147 324.983 413.961 324.76 413.887 324.536C411.69 324.834 408.005 326.211 406.404 327.291C406.367 327.514 406.292 327.775 406.292 328.036C406.255 335.853 406.255 343.634 406.255 351.451C406.255 351.824 406.404 352.196 406.516 352.568C408.638 352.121 412.1 350.818 414.147 349.664ZM386.041 408.52C389.503 408.371 391.29 407.589 392.928 405.579C394.566 403.532 395.273 401.149 395.161 398.543C395.124 397.575 394.864 396.533 394.454 395.639C393.747 394.039 392.183 393.369 390.471 393.778C389.056 394.113 387.828 394.783 386.785 395.863C386.376 396.272 386.004 396.719 385.631 397.129C385.036 396.682 384.515 396.272 383.733 396.607C382.095 397.277 381.685 397.352 381.648 399.288C381.611 402.303 381.611 405.318 381.611 408.334C381.611 410.27 381.611 412.205 381.611 414.104C381.611 414.7 381.611 415.295 382.355 415.63C383.584 415.481 384.701 414.997 385.818 414.104C385.966 412.317 386.004 410.493 386.041 408.52ZM436.856 375.947C436.223 374.271 437.116 372.373 436.037 370.698C434.734 370.995 433.542 371.256 432.612 372.187C432.574 372.447 432.463 372.671 432.463 372.931C432.463 378.292 432.426 383.652 432.426 389.013C432.426 389.311 432.612 389.609 432.686 389.907C436.037 389.534 436.446 389.125 436.52 386.147C436.558 384.993 436.52 383.801 436.558 382.647C436.595 381.977 436.632 381.307 436.744 380.637C436.967 379.595 437.563 378.813 438.531 378.366C439.089 378.106 439.796 378.441 439.908 379.036C439.983 379.595 440.02 380.19 440.02 380.786C440.02 382.201 439.983 383.652 440.02 385.067C440.02 385.625 440.169 386.184 440.28 386.78C441.658 387.003 442.7 386.407 443.631 385.774C443.929 385.588 444.152 385.067 444.152 384.695C444.189 382.201 444.338 379.669 444.152 377.175C443.929 374.122 441.621 373.043 438.94 374.569C438.419 374.867 438.01 375.276 437.526 375.611C437.414 375.723 437.191 375.798 436.856 375.947ZM404.133 400.628C405.399 401.447 406.59 401.298 407.781 400.665C409.122 399.958 409.605 398.357 408.675 397.091C408.228 396.496 408.042 395.975 408.042 395.267C408.042 394.076 408.116 392.922 408.005 391.731C407.781 389.199 406.367 388.008 403.947 388.566C400.373 389.348 397.693 391.321 396.464 394.932C396.353 395.267 396.464 395.714 396.464 396.235C398.251 395.975 399.703 395.639 400.597 394.039C400.894 393.48 401.49 393.071 402.048 392.699C402.719 392.252 403.389 392.289 403.649 392.661C403.91 393.034 403.649 393.704 402.979 394.076C402.383 394.411 401.751 394.634 401.155 394.932C400.187 395.453 399.219 395.9 398.326 396.533C397.135 397.352 396.316 398.58 395.98 399.995C395.832 400.628 395.794 401.335 395.869 401.968C396.129 403.569 397.395 404.388 398.996 404.127C400.336 403.904 401.565 403.345 402.57 402.378C403.091 401.856 403.538 401.261 404.133 400.628ZM376.771 404.239C377.479 403.978 378.112 403.755 378.707 403.494C380.42 402.75 380.643 401.559 379.303 400.293C378.744 399.734 378.037 399.474 377.255 399.511C373.868 399.734 371.15 401.149 369.401 404.127C369.028 404.76 368.842 405.542 368.805 406.286C368.656 408.036 369.661 409.19 371.374 409.376C372.044 409.451 372.714 409.302 373.384 409.227C373.979 409.153 374.538 409.004 375.096 408.967C375.357 408.967 375.655 409.153 375.99 409.302C375.506 410.419 374.65 410.716 373.719 410.902C372.714 411.126 372.453 409.86 371.411 409.748C370.852 409.972 370.182 410.27 369.475 410.53C368.47 410.865 368.321 411.647 368.582 412.578C369.028 414.178 370.555 415.146 372.304 414.849C374.761 414.439 376.92 413.397 378.67 411.573C379.489 410.716 380.047 409.674 380.308 408.483C380.792 406.1 379.452 404.499 377.032 404.648C376.362 404.686 375.729 404.946 375.059 405.021C374.426 405.095 373.756 405.318 373.198 404.797C374.203 403.197 374.687 403.122 376.771 404.239ZM431.16 386.333C430.974 386.221 430.862 386.035 430.713 386.035C429.075 386.221 427.623 386.631 426.842 388.306C426.395 389.236 425.725 389.944 424.608 390.167C424.012 390.279 423.379 389.981 423.193 389.423C422.709 388.082 422.858 386.78 423.342 385.514C423.789 384.36 424.645 383.615 426.023 383.355C426.581 383.727 427.177 384.099 427.809 384.546C428.666 384.211 429.447 383.988 430.192 383.615C431.234 383.131 431.42 382.424 430.899 381.344C430.117 379.781 428.703 379.074 426.655 379.483C421.89 380.451 417.684 385.179 418.801 391.098C419.247 393.369 421.22 394.634 423.491 394.15C425.948 393.629 428.033 392.401 429.522 390.391C430.49 389.199 431.309 387.896 431.16 386.333ZM415.301 393.331C415.227 392.699 415.115 392.215 415.115 391.731C415.115 390.502 415.152 389.236 415.19 388.008C416.232 387.412 417.163 386.891 418.093 386.333C418.093 385.328 418.391 384.434 417.833 383.429C417.051 383.541 416.269 383.615 415.413 383.727C415.19 383.02 414.966 382.312 414.78 381.642C412.807 381.679 411.69 382.498 411.392 384.397C411.318 384.806 411.169 385.179 411.095 385.514C410.313 386.035 409.643 386.519 408.973 386.966C408.935 387.487 408.861 387.896 408.861 388.306C408.861 388.715 408.973 389.125 409.01 389.497C409.606 389.758 410.127 389.981 410.797 390.242C410.797 391.433 410.76 392.587 410.797 393.741C410.834 394.56 410.908 395.416 411.169 396.198C411.579 397.464 412.36 397.948 413.626 397.873C415.078 397.761 416.344 397.129 417.535 396.347C417.758 396.198 417.982 395.826 418.019 395.528C418.093 394.709 418.279 393.853 417.684 392.996C417.051 393.108 416.344 393.183 415.301 393.331ZM333.477 360.907C335.04 360.088 335.599 358.413 336.976 357.519C337.497 357.78 338.018 358.04 338.54 358.264C339.023 358.45 339.47 359.046 340.215 358.524C339.88 357.184 339.582 355.807 339.284 354.616C340.14 353.052 341.518 352.084 342.188 350.521C341.183 350.26 340.475 350.893 339.694 351.042C339.247 351.116 338.763 351.191 338.391 351.265C337.572 350.223 337.832 348.845 336.604 347.915C336.045 349.627 335.561 351.191 335.077 352.68C333.998 353.089 333.067 353.424 332.137 353.834C331.801 353.983 331.578 354.281 331.169 354.616C332.323 355.248 333.253 355.77 334.184 356.291C334.221 357.854 333.291 359.232 333.477 360.907ZM366.46 403.829C365.492 403.755 364.673 404.239 363.854 404.537C362.923 404.872 362.551 405.505 362.551 406.435C362.551 409.935 362.514 413.471 362.551 416.97C362.551 417.417 362.886 417.827 363.035 418.236C365.343 417.678 365.343 417.678 366.795 416.449C366.795 412.503 366.795 408.52 366.795 404.499C366.795 404.313 366.609 404.09 366.46 403.829ZM362.886 403.234C364.189 403.234 365.231 402.638 366.236 402.154C366.571 402.005 366.944 401.596 367.018 401.261C367.241 400.218 367.428 399.139 366.609 398.096C366.087 398.208 365.603 398.283 365.157 398.469C362.7 399.399 362.067 399.176 362.625 402.861C362.663 402.899 362.737 402.973 362.886 403.234Z" fill="black"/>
<path d="M307.418 348.287L307.604 405.431L476.725 339.353V288.129L307.418 348.287Z" fill="#FF1414"/>
<path d="M307.418 403.979L307.604 458.925L476.725 388.38V339.353L307.418 403.979Z" fill="#026DB7"/>
<path d="M440.094 316.458C439.536 318.282 440.094 319.957 439.648 321.707C438.605 322.563 437.153 322.786 435.85 323.345C434.622 323.866 433.393 324.313 432.016 324.834C431.867 330.939 431.979 336.97 431.83 343.038C429.708 344.266 427.437 344.862 425.278 345.718C425.017 345.83 424.645 345.718 424.273 345.718C423.863 343.745 424.124 341.847 424.087 339.911C424.05 337.901 424.087 335.89 424.087 333.88C424.087 331.944 424.087 330.046 424.087 327.924C423.417 328.073 422.97 328.11 422.523 328.259C420.922 328.817 419.359 329.413 417.795 329.934C417.349 330.083 416.865 330.157 416.232 330.306C415.748 327.998 416.083 325.876 416.009 323.68C416.53 323.382 416.939 323.121 417.386 322.935C427.065 319.399 436.744 315.899 446.423 312.4C446.721 312.288 447.056 312.251 447.465 312.14C449.55 314.596 450.965 317.463 453.049 320.143C453.459 319.436 453.831 318.915 454.092 318.319C455.432 315.416 456.772 312.549 458.038 309.608C458.559 308.342 459.341 307.561 460.681 307.188C462.133 306.779 463.51 306.183 464.925 305.662C465.297 305.55 465.706 305.513 466.041 305.439C466.563 306.22 466.004 306.667 465.781 307.151C463.138 312.661 460.495 318.17 457.777 323.643C457.107 324.946 456.809 326.286 456.846 327.738C456.921 329.673 456.846 331.572 456.846 333.396C455.097 334.625 451.374 336.039 449.401 336.188C449.327 335.741 449.215 335.257 449.215 334.773C449.178 333.024 449.215 331.237 449.215 329.487C449.215 328.705 449.103 328.035 448.619 327.365C446.013 323.978 443.482 320.516 440.913 317.128C440.727 316.905 440.429 316.756 440.094 316.458Z" fill="white"/>
<path d="M373.793 352.233C373.644 358.301 371.113 363.215 366.534 367.124C363.109 370.065 359.089 371.964 354.696 372.894C353.319 373.192 351.867 373.192 350.452 373.118C346.99 372.931 344.459 370.884 343.491 367.571C342.821 365.374 342.746 363.104 343.118 360.833C343.975 355.137 346.916 350.707 351.494 347.282C354.845 344.788 358.605 343.15 362.7 342.405C364.524 342.07 366.348 342.033 368.172 342.592C370.406 343.262 371.932 344.676 372.9 346.798C373.607 348.548 373.831 350.372 373.793 352.233ZM351.941 360.274C351.978 360.684 351.978 361.54 352.239 362.322C352.797 364.109 353.951 364.965 355.738 365.002C357.674 365.039 359.349 364.369 360.876 363.252C364.04 360.907 365.417 357.706 364.971 353.834C364.673 351.042 362.7 349.739 360.019 350.26C355.366 351.154 352.053 355.1 351.941 360.274Z" fill="white"/>
<path d="M403.5 336.56C403.24 336.747 403.091 336.97 402.868 337.082C400.299 338.049 397.693 339.017 395.05 340.022C393.673 338.98 392.221 338.533 390.545 339.055C389.243 339.464 388.051 340.022 387.046 340.953C384.626 343.224 383.658 346.09 383.919 349.366C383.956 349.85 384.105 350.372 384.291 350.818C384.999 352.717 386.674 353.648 388.721 353.201C391.476 352.605 393.673 351.191 395.087 348.696C395.162 348.585 395.124 348.399 395.124 348.063C393.114 348.324 391.364 349.478 389.28 349.888C389.168 349.515 388.907 349.143 388.907 348.771C388.87 347.356 388.945 345.942 388.945 344.452C393.673 342.479 398.438 340.916 403.277 339.055C403.835 341.735 403.463 344.155 403.538 346.537C403.575 348.957 403.538 351.377 403.538 353.759C402.011 354.839 400.411 355.211 398.81 355.732C397.916 354.541 398.251 353.164 397.619 351.935C396.948 352.047 396.874 352.68 396.613 353.126C394.864 356.179 392.444 358.599 389.205 360.088C387.046 361.093 384.813 361.651 382.393 361.577C379.489 361.465 377.479 360.051 376.25 357.482C375.431 355.807 375.134 353.983 375.096 352.121C375.022 346.761 376.809 342.07 380.531 338.198C384.515 334.066 389.429 331.721 395.087 330.827C396.539 330.604 397.954 330.753 399.331 331.2C400.559 331.572 401.602 332.279 402.384 333.322C403.128 334.29 403.612 335.332 403.5 336.56Z" fill="white"/>
<path d="M319.33 385.514C319.256 384.993 319.144 384.583 319.107 384.211C318.884 379.371 319.07 360.721 319.33 358.822C321.564 357.519 325.808 356.067 327.52 355.993C328.004 356.737 327.818 357.594 327.818 358.413C327.818 362.954 327.818 367.459 327.818 372C327.818 372.819 327.855 373.638 327.893 374.718C328.861 374.42 329.68 374.197 330.424 373.899C333.663 372.708 336.864 371.479 340.103 370.288C340.81 370.027 341.518 369.841 342.337 369.618C342.411 370.214 342.523 370.623 342.523 371.033C342.523 372.968 342.523 374.867 342.523 376.914C335.338 379.818 328.19 382.349 321.08 385.104C320.559 385.29 320.001 385.365 319.33 385.514Z" fill="white"/>
<path d="M344.421 407.329C344.57 407.18 344.645 406.994 344.794 406.956C347.846 405.579 350.899 404.165 354.175 403.457C357.711 402.713 360.057 404.276 360.764 407.813C361.583 411.87 360.429 415.444 357.935 418.609C356.557 420.358 354.845 421.698 352.797 422.592C350.489 423.597 348.144 424.528 345.836 425.458C345.464 425.607 345.017 425.57 344.533 425.644C344.421 425.272 344.235 424.974 344.235 424.639C344.235 419.092 344.235 413.583 344.272 408.036C344.272 407.813 344.384 407.552 344.421 407.329ZM349.261 419.576C351.346 419.204 352.425 418.72 353.579 417.827C355.962 416.077 356.818 411.945 355.85 409.376C355.478 408.408 354.808 407.924 353.728 407.924C352.611 407.887 351.606 408.371 350.601 408.706C349.521 409.078 348.963 409.749 349 410.94C349.037 413.36 349 415.779 349 418.236C349 418.608 349.149 419.018 349.261 419.576Z" fill="white"/>
<path d="M414.147 349.665C412.1 350.856 408.638 352.159 406.516 352.531C406.441 352.159 406.255 351.787 406.255 351.414C406.255 343.597 406.292 335.816 406.292 327.999C406.292 327.738 406.367 327.515 406.404 327.254C407.968 326.174 411.69 324.797 413.887 324.499C413.961 324.723 414.147 324.946 414.147 325.169C414.147 333.322 414.147 341.475 414.147 349.665Z" fill="white"/>
<path d="M386.041 408.52C386.004 410.493 385.929 412.317 385.892 414.104C384.812 415.035 383.658 415.481 382.43 415.63C381.685 415.333 381.685 414.7 381.685 414.104C381.685 412.168 381.685 410.232 381.685 408.334C381.685 405.318 381.685 402.303 381.722 399.288C381.76 397.389 382.169 397.278 383.807 396.607C384.552 396.31 385.073 396.719 385.706 397.129C386.078 396.682 386.45 396.272 386.86 395.863C387.865 394.821 389.131 394.15 390.545 393.778C392.22 393.369 393.784 394.039 394.528 395.64C394.938 396.533 395.199 397.575 395.236 398.543C395.347 401.112 394.64 403.532 393.002 405.579C391.327 407.589 389.503 408.371 386.041 408.52ZM390.769 400.442C390.769 400.293 390.769 399.883 390.694 399.474C390.471 398.171 389.466 397.724 388.312 398.32C386.525 399.251 385.445 402.005 386.115 403.904C386.525 405.021 387.455 405.393 388.498 404.835C390.136 403.941 390.731 402.452 390.769 400.442Z" fill="white"/>
<path d="M436.855 375.947C437.19 375.798 437.414 375.723 437.6 375.574C438.084 375.239 438.493 374.793 439.015 374.532C441.695 373.006 444.003 374.085 444.226 377.138C444.412 379.632 444.301 382.163 444.226 384.658C444.226 385.03 444.003 385.551 443.705 385.737C442.737 386.407 441.732 386.966 440.355 386.742C440.243 386.147 440.094 385.588 440.094 385.03C440.057 383.615 440.094 382.201 440.094 380.749C440.094 380.153 440.057 379.558 439.982 378.999C439.871 378.404 439.163 378.069 438.605 378.329C437.637 378.813 437.042 379.595 436.818 380.6C436.669 381.233 436.632 381.94 436.632 382.61C436.595 383.764 436.632 384.956 436.595 386.11C436.558 389.088 436.111 389.497 432.76 389.869C432.686 389.572 432.5 389.274 432.5 388.976C432.5 383.615 432.5 378.255 432.537 372.894C432.537 372.633 432.649 372.41 432.686 372.149C433.617 371.182 434.808 370.921 436.111 370.66C437.153 372.373 436.223 374.234 436.855 375.947Z" fill="white"/>
<path d="M404.133 400.629C403.575 401.262 403.091 401.857 402.57 402.378C401.564 403.346 400.373 403.905 398.996 404.128C397.395 404.389 396.129 403.57 395.869 401.969C395.757 401.336 395.831 400.629 395.98 399.996C396.315 398.544 397.097 397.353 398.326 396.534C399.219 395.901 400.187 395.454 401.155 394.933C401.751 394.635 402.383 394.412 402.979 394.077C403.649 393.705 403.91 393.034 403.649 392.662C403.389 392.29 402.718 392.253 402.048 392.699C401.527 393.072 400.932 393.481 400.597 394.04C399.703 395.64 398.251 395.975 396.464 396.236C396.464 395.715 396.353 395.268 396.464 394.933C397.693 391.322 400.373 389.349 403.947 388.567C406.367 388.046 407.781 389.237 408.005 391.731C408.116 392.886 408.042 394.077 408.042 395.268C408.042 395.938 408.228 396.497 408.675 397.092C409.643 398.358 409.159 399.959 407.781 400.666C406.59 401.299 405.399 401.448 404.133 400.629ZM403.463 397.018C402.309 397.241 401.341 397.613 400.522 398.321C400.299 398.507 400.15 398.879 400.038 399.177C399.889 399.549 400.336 400.108 400.708 399.996C402.048 399.661 402.905 398.767 403.463 397.018Z" fill="white"/>
<path d="M376.771 404.239C374.687 403.122 374.203 403.196 373.123 404.797C373.682 405.318 374.389 405.058 374.984 405.02C375.655 404.946 376.287 404.685 376.957 404.648C379.377 404.499 380.755 406.1 380.233 408.482C379.973 409.637 379.452 410.679 378.595 411.572C376.846 413.396 374.687 414.439 372.23 414.848C370.48 415.146 368.991 414.141 368.507 412.577C368.246 411.684 368.395 410.902 369.4 410.53C370.108 410.269 370.778 409.972 371.336 409.748C372.379 409.86 372.639 411.088 373.644 410.902C374.575 410.716 375.431 410.418 375.915 409.301C375.58 409.153 375.282 408.966 375.022 408.966C374.426 409.004 373.868 409.153 373.309 409.227C372.639 409.301 371.969 409.413 371.299 409.376C369.587 409.227 368.581 408.036 368.73 406.286C368.805 405.542 368.991 404.76 369.326 404.127C371.076 401.149 373.793 399.734 377.181 399.511C377.963 399.474 378.67 399.734 379.228 400.293C380.568 401.558 380.345 402.75 378.633 403.494C378.111 403.792 377.479 403.978 376.771 404.239Z" fill="white"/>
<path d="M431.16 386.334C431.309 387.934 430.49 389.2 429.596 390.429C428.07 392.439 426.023 393.667 423.566 394.188C421.295 394.672 419.322 393.407 418.875 391.136C417.758 385.217 421.965 380.489 426.73 379.521C428.777 379.112 430.192 379.782 430.974 381.382C431.495 382.425 431.309 383.169 430.266 383.653C429.522 383.988 428.703 384.249 427.884 384.584C427.251 384.174 426.655 383.765 426.097 383.393C424.72 383.653 423.863 384.435 423.417 385.552C422.895 386.818 422.784 388.158 423.268 389.461C423.454 390.019 424.087 390.317 424.682 390.205C425.762 389.982 426.469 389.312 426.916 388.344C427.698 386.669 429.15 386.222 430.788 386.073C430.862 385.999 431.011 386.185 431.16 386.334Z" fill="white"/>
<path d="M415.301 393.332C416.344 393.183 417.051 393.071 417.758 392.997C418.354 393.853 418.168 394.709 418.093 395.528C418.056 395.826 417.87 396.198 417.609 396.347C416.418 397.129 415.152 397.762 413.701 397.874C412.435 397.948 411.616 397.464 411.244 396.198C410.983 395.417 410.909 394.561 410.871 393.742C410.797 392.588 410.871 391.433 410.871 390.242C410.201 389.982 409.68 389.758 409.084 389.498C409.01 389.088 408.936 388.679 408.936 388.306C408.936 387.897 409.01 387.487 409.047 386.966C409.717 386.52 410.387 386.036 411.169 385.514C411.244 385.217 411.393 384.807 411.467 384.398C411.765 382.536 412.882 381.68 414.855 381.643C415.078 382.35 415.264 383.02 415.487 383.728C416.344 383.616 417.125 383.504 417.907 383.43C418.466 384.435 418.205 385.328 418.168 386.333C417.237 386.892 416.306 387.413 415.264 388.009C415.227 389.237 415.19 390.503 415.19 391.731C415.115 392.215 415.227 392.699 415.301 393.332Z" fill="white"/>
<path d="M333.477 360.907C333.291 359.232 334.221 357.855 334.184 356.291C333.253 355.77 332.323 355.249 331.169 354.616C331.578 354.281 331.839 353.983 332.137 353.834C333.067 353.425 333.998 353.09 335.078 352.68C335.561 351.191 336.045 349.628 336.604 347.915C337.832 348.809 337.572 350.223 338.391 351.266C338.763 351.191 339.247 351.154 339.694 351.042C340.475 350.893 341.183 350.261 342.188 350.521C341.518 352.085 340.14 353.053 339.284 354.616C339.582 355.807 339.88 357.185 340.215 358.525C339.508 359.046 339.061 358.488 338.54 358.264C338.018 358.041 337.497 357.78 336.976 357.52C335.599 358.413 335.04 360.088 333.477 360.907Z" fill="white"/>
<path d="M366.46 403.829C366.571 404.09 366.757 404.313 366.757 404.537C366.757 408.557 366.757 412.541 366.757 416.487C365.343 417.715 365.343 417.715 362.998 418.273C362.849 417.864 362.514 417.454 362.514 417.008C362.476 413.508 362.514 409.972 362.514 406.473C362.514 405.542 362.886 404.909 363.817 404.574C364.71 404.239 365.492 403.755 366.46 403.829Z" fill="white"/>
<path d="M362.886 403.234C362.737 403.011 362.662 402.936 362.662 402.862C362.104 399.176 362.699 399.4 365.194 398.469C365.64 398.32 366.124 398.246 366.645 398.097C367.464 399.139 367.278 400.219 367.055 401.261C366.98 401.596 366.608 402.006 366.273 402.155C365.194 402.639 364.188 403.234 362.886 403.234Z" fill="white"/>
<path d="M140.046 84.2749L201.582 153.182L329.605 50.7707L269.037 0.551758L140.046 84.2749Z" fill="url(#paint14_linear_103_37)"/>
<path d="M228.794 84.3494C233.82 84.4983 237.878 86.583 240.968 90.4173C244.095 94.2517 244.281 98.6817 241.34 102.702C238.324 106.834 234.229 109.44 229.204 110.483C223.136 111.748 218.148 109.738 214.127 105.122C213.866 104.824 213.643 104.526 213.42 104.191C210.851 100.431 210.777 96.4481 213.42 92.6509C216.175 88.7421 220.046 86.3596 224.588 85.0567C225.965 84.6844 227.417 84.5727 228.794 84.3494ZM227.343 88.9655C223.88 89.3005 220.977 90.6407 218.818 93.4699C217.366 95.4057 217.142 97.6021 218.185 99.7613C219.934 103.372 222.95 105.531 226.933 105.829C230.954 106.127 234.155 104.266 236.426 101.027C237.692 99.2029 237.878 97.1554 236.835 95.1824C234.862 91.3852 231.661 89.3005 227.343 88.9655Z" fill="#026DB7"/>
<path d="M256.156 62.1248C256.491 61.9015 256.752 61.7526 257.012 61.5664C259.879 59.5562 262.708 57.5459 265.574 55.6101C267.547 54.27 269.744 53.451 272.126 52.967C274.285 52.5203 276.37 52.7809 278.455 53.3765C281.656 54.3072 284.262 56.1685 286.421 58.7C286.459 58.7744 286.533 58.8116 286.57 58.8861C289.4 62.6088 289.288 66.0709 286.272 69.6446C285.677 70.352 284.97 71.022 284.188 71.5804C281.284 73.7768 278.343 75.8988 275.402 78.0579C275.142 78.244 274.844 78.3557 274.472 78.5791C272.759 77.4623 271.345 75.936 269.818 74.5958C268.255 73.2556 266.766 71.841 265.202 70.5009C263.713 69.1979 262.224 67.895 260.772 66.5548C259.283 65.1402 257.571 63.9862 256.156 62.1248ZM263.639 62.1993C263.974 62.6088 264.123 62.9066 264.346 63.0927C267.659 66.0336 270.972 68.9746 274.285 71.8783C274.621 72.1761 275.067 72.325 275.402 72.5483C275.737 72.3994 275.961 72.2878 276.184 72.1761C277.226 71.4315 278.269 70.7242 279.274 69.9797C280.018 69.4213 280.8 68.8629 281.47 68.1556C283.406 66.1453 283.592 63.9862 281.917 61.7526C281.061 60.6358 280.018 59.6306 278.864 58.8116C275.477 56.3174 272.089 56.243 268.515 58.5138C267.138 59.4073 265.798 60.4124 264.458 61.3803C264.16 61.5292 264.011 61.7898 263.639 62.1993Z" fill="#026DB7"/>
<path d="M214.35 50.5471C214.536 50.2493 214.536 50.1749 214.611 50.1376C218.371 47.6807 222.131 45.1493 225.965 42.7667C226.896 42.2083 228.013 41.9105 229.055 41.6127C232.778 40.5704 235.719 41.985 238.138 44.7398C239.33 46.1171 239.478 47.7179 238.883 49.4303C238.697 49.9515 238.473 50.4355 238.25 50.9939C239.925 52.0734 241.786 52.0362 243.499 52.5202C245.211 53.0041 247.035 53.1902 248.86 53.8603C248.376 54.791 247.482 55.0888 246.849 55.61C246.365 55.9823 245.807 56.3173 245.286 56.6523C244.802 56.9874 244.281 57.0246 243.722 56.8757C241.042 56.2056 238.324 55.7217 235.644 54.9771C234.043 54.5304 232.703 54.7165 231.437 55.7961C230.805 56.3545 229.837 56.5779 229.502 57.6947C231.14 59.6677 233.373 61.2312 235.272 63.3159C234.081 64.6189 232.703 65.3262 231.289 66.2196C230.916 65.959 230.47 65.7729 230.135 65.4751C225.146 60.859 220.158 56.2056 215.169 51.5523C214.872 51.2544 214.648 50.9194 214.35 50.5471ZM221.572 50.3982C223.024 52.0362 224.513 53.4508 226.151 54.6049C226.486 54.5304 226.747 54.5304 226.933 54.4187C228.72 53.2647 230.507 52.0734 232.256 50.8822C232.629 50.6216 232.964 50.2493 233.262 49.8771C233.894 49.0581 233.894 48.0902 233.373 47.234C232.48 45.8566 230.618 45.112 229.055 45.5587C228.534 45.7077 227.975 45.8938 227.529 46.1916C225.742 47.3456 223.955 48.4997 222.168 49.6909C221.945 49.7654 221.833 50.026 221.572 50.3982Z" fill="#026DB7"/>
<path d="M251.801 88.9657C252.471 90.5292 253.103 92.0555 253.774 93.6563C252.582 95.1453 250.944 96.076 249.269 97.1184C248.971 96.5972 248.636 96.2621 248.487 95.8527C245.733 89.1146 243.015 82.3393 240.297 75.564C240.186 75.2662 240.037 74.9684 239.962 74.6706C239.814 74.075 239.925 73.591 240.409 73.1815C240.521 73.0698 240.67 72.9582 240.781 72.8837C242.084 72.0275 243.425 71.1713 244.765 70.2778C246.179 70.7618 247.631 71.1341 249.009 71.6925C255.821 74.3356 262.596 76.9787 269.372 79.659C270.004 79.9196 270.637 80.2174 271.456 80.5897C270.191 82.1532 268.627 83.0466 267.064 84.0518C265.239 83.3072 263.415 82.5999 261.628 81.8926C259.842 82.8233 253.96 87.0299 251.801 88.9657ZM249.939 84.4985C250.237 84.424 250.498 84.424 250.684 84.3123C252.433 83.0839 254.146 81.8554 255.858 80.5897C256.082 80.4408 256.119 80.1057 256.342 79.6962C252.955 78.0582 249.679 76.6064 246.291 75.4151C246.217 75.3779 246.03 75.564 245.881 75.6385C245.881 75.8619 245.807 76.1224 245.881 76.3086C247.036 78.84 248.152 81.3342 249.344 83.8284C249.492 84.089 249.753 84.2751 249.939 84.4985Z" fill="#026DB7"/>
<path d="M288.99 57.9557C290.256 56.7272 291.447 55.9827 292.639 55.2009C293.16 55.3871 293.606 55.536 294.053 55.6849C297.404 56.7644 301.312 55.5732 303.472 52.8556C304.253 51.8877 304.402 50.8082 303.881 49.9892C303.211 48.984 302.206 48.4629 301.052 48.6862C300.047 48.8724 299.079 49.2819 298.148 49.6914C296.51 50.4359 294.872 51.3293 293.234 52.1111C291.261 53.0418 289.214 53.5629 287.017 53.414C284.635 53.2279 282.811 52.0366 281.396 50.2125C280.279 48.7607 280.242 47.0855 281.098 45.522C281.545 44.703 282.103 43.884 282.773 43.2511C285.156 40.9431 287.911 39.3051 291.187 38.5978C293.942 38.0021 296.51 38.4489 298.893 40.1241C298.707 41.1292 297.85 41.3153 297.255 41.7993C296.25 42.6555 295.207 42.9533 293.793 42.581C291.075 41.8365 287.39 43.5489 285.938 45.8942C285.23 47.0483 285.603 48.2395 286.831 48.8724C287.501 49.2074 288.209 49.3563 288.916 49.0957C289.809 48.7979 290.74 48.5001 291.596 48.1278C293.123 47.4205 294.537 46.5643 296.063 45.9314C297.441 45.3358 298.855 44.8146 300.307 44.4796C303.472 43.7351 307.008 45.2614 308.758 48.0161C309.577 49.2819 309.875 50.6593 309.167 52.0739C308.795 52.8556 308.386 53.6374 307.827 54.3075C305.78 56.69 303.323 58.5886 300.307 59.5565C296.473 60.7849 292.713 60.4127 288.99 57.9557Z" fill="#026DB7"/>
<path d="M176.044 80.2544C174.257 80.7755 173.252 81.7062 172.135 82.3763C171.056 83.0464 170.013 83.7537 168.971 84.461C167.854 85.2055 166.737 85.9128 165.583 86.6201C164.355 86.099 163.759 85.0194 162.829 84.1632C163.201 83.7909 163.424 83.4559 163.722 83.2325C168.673 79.9938 173.662 76.755 178.65 73.5163C178.911 73.3302 179.208 73.2185 179.506 73.0696C180.623 73.4791 181.256 74.3725 181.926 75.266C181.293 77.8718 179.841 80.2171 179.357 82.7858C179.841 83.1953 180.214 83.0091 180.549 82.8602C182.038 82.1157 183.638 81.6317 185.314 81.4084C187.361 81.1478 189.26 81.5573 191.009 82.5996C194.025 84.4238 195.03 87.8858 193.429 91.0501C193.168 91.5341 192.908 92.0553 192.573 92.4648C188.776 96.9692 184.085 99.5006 178.054 99.0167C176.305 98.8678 174.667 98.3094 173.475 96.8947C174.294 95.9641 176.305 94.3633 177.049 94.14C177.347 94.0655 177.682 94.0655 177.98 94.1027C178.129 94.1027 178.278 94.2144 178.427 94.2889C181.926 95.8524 184.718 94.4378 187.287 92.1297C188.515 91.0501 188.999 89.5983 188.441 88.0348C187.808 86.3223 186.468 85.3544 184.644 85.2427C183.787 85.1683 182.931 85.3544 182.075 85.5778C180.66 85.9501 179.395 86.6946 178.538 87.8486C177.57 89.1143 176.528 89.1888 175.225 88.5559C174.816 88.3698 174.406 88.1464 173.922 87.9231C174.257 85.3544 175.523 83.1208 176.044 80.2544Z" fill="#026DB7"/>
<path d="M255.709 33.8319C256.826 34.3903 257.608 35.0976 258.427 36.0655C258.017 36.4006 257.72 36.7356 257.347 36.9962C255.3 38.3736 253.252 39.7137 251.242 41.0911C250.647 41.5006 250.125 41.9101 249.418 42.4313C249.641 42.8408 249.753 43.2131 250.014 43.4364C250.833 44.2182 251.689 44.8883 252.508 45.6328C253.141 46.1912 253.774 46.1912 254.444 45.7073C255.077 45.2605 255.747 44.8138 256.417 44.3671C258.65 42.8408 260.847 41.3145 263.118 39.8254C264.383 38.9692 264.607 39.0064 265.835 40.0116C266.282 40.4211 266.691 40.8678 267.175 41.389C266.877 41.724 266.691 41.9846 266.431 42.1335C261.815 45.2978 257.161 48.4993 252.508 51.7008C250.758 50.6584 249.493 49.2438 248.041 48.0526C246.589 46.8241 245.174 45.5211 243.76 44.2926C242.382 43.1014 241.042 41.8729 239.665 40.6816C238.25 39.4159 236.835 38.1874 235.309 36.8101C236.203 35.7677 237.282 35.2465 238.213 34.6137C239.181 33.9436 240.186 33.3107 241.191 32.6779C242.122 32.0823 243.052 31.4494 243.983 30.8538C244.988 30.2209 245.956 29.5508 246.961 28.918C247.966 28.2851 248.971 27.6523 250.014 26.9822C251.205 27.3544 251.949 28.2479 252.88 29.1786C252.21 29.6997 251.763 30.1092 251.242 30.4443C248.86 32.045 246.477 33.5713 244.095 35.1721C243.499 35.5443 242.829 35.8422 242.531 36.6611C243.425 37.9641 244.69 38.8948 246.03 39.8627C246.552 39.6021 247.073 39.4159 247.519 39.1181C249.567 37.778 251.614 36.4006 253.662 35.0604C254.369 34.6137 255.039 34.2414 255.709 33.8319Z" fill="#026DB7"/>
<path d="M267.92 30.1842C269 31.7849 270.489 32.6412 271.866 33.758C273.876 32.7528 275.552 31.4127 277.338 30.2586C279.051 29.1418 280.652 27.8389 282.625 26.871C283.481 27.5411 284.337 28.2484 285.082 28.844C285.044 29.1418 285.044 29.2163 285.044 29.2907C285.007 29.3652 284.97 29.4396 284.933 29.4769C280.838 32.3061 276.743 35.1726 272.648 38.0018C272.201 38.2996 271.717 38.5602 271.159 38.9325C269.074 37.6295 267.362 35.8799 265.463 34.3536C263.527 32.7901 261.666 31.1893 259.805 29.5886C257.943 27.9878 256.007 26.4987 254.183 24.6746C254.481 24.3396 254.667 24.0045 254.965 23.7812C259.209 20.9892 263.453 18.2344 267.697 15.4796C267.808 15.4051 267.994 15.3679 268.218 15.2935C269.297 15.5913 269.93 16.4847 270.935 17.3037C270.451 17.7504 270.116 18.0482 269.744 18.3088C267.511 19.7979 265.24 21.287 263.006 22.776C262.373 23.2228 261.74 23.6695 261.219 24.0418C261.07 24.9352 261.554 25.233 262.001 25.5681C265.016 28.1367 264.346 27.9878 267.362 26.0148C269.372 24.7118 271.345 23.4089 273.318 22.106C273.467 22.0315 273.616 21.9943 273.839 21.8826C274.807 22.2549 275.663 22.925 276.333 24.0045C275.924 24.3768 275.552 24.7863 275.105 25.0841C273.206 26.387 271.308 27.6528 269.409 28.9557C268.888 29.2907 268.441 29.7375 267.92 30.1842Z" fill="#026DB7"/>
<path d="M215.914 60.2638C217.031 60.9339 217.887 61.6784 218.557 62.7952C217.142 64.2471 215.318 65.1405 213.755 66.2946C212.154 67.4486 210.367 68.342 208.878 69.8311C209.176 70.2778 209.362 70.6873 209.66 71.0224C210.963 72.3253 212.266 73.5538 213.569 74.8195C214.202 75.4151 214.797 76.048 215.393 76.6436C214.462 77.9466 213.755 78.4677 211.149 79.8451C209.139 78.2816 207.426 76.3086 205.528 74.5217C203.629 72.7348 201.768 70.9107 199.906 69.0494C198.082 67.2252 196.072 65.55 194.434 63.5026C194.657 63.242 194.769 63.0186 194.955 62.8697C200.13 59.4821 205.267 56.0944 210.479 52.7068C211.633 53.3396 212.415 54.1586 213.271 55.201C212.824 55.6105 212.489 56.02 212.08 56.2806C209.436 58.0302 206.793 59.7799 204.15 61.5295C203.443 62.0135 202.736 62.5347 201.991 63.0931C202.773 64.7683 204.113 65.6989 205.49 66.8157C206.049 66.5179 206.644 66.2946 207.128 65.9595C209.399 64.4705 211.596 62.9814 213.866 61.4923C214.574 61.0456 215.244 60.6733 215.914 60.2638Z" fill="#026DB7"/>
<path d="M208.097 121.427C209.921 120.608 211.112 119.454 212.489 118.523C213.867 117.555 215.17 116.55 216.547 115.582C217.887 114.614 219.227 113.647 220.679 112.604C222.019 113.386 222.987 114.428 223.918 115.768C223.508 116.141 223.173 116.513 222.801 116.774C217.441 120.72 212.117 124.703 206.645 128.612C206.235 128.314 205.9 128.091 205.64 127.83C200.093 122.023 194.583 116.215 189.074 110.408C188.925 110.222 188.813 110.036 188.59 109.701C189.744 108.137 191.531 107.43 192.945 106.35C194.025 106.648 194.509 107.392 195.104 107.988C198.753 111.748 202.364 115.545 206.012 119.305C206.645 120.012 207.315 120.682 208.097 121.427Z" fill="#026DB7"/>
<path d="M228.794 84.3494C233.82 84.4983 237.878 86.583 240.968 90.4173C244.095 94.2517 244.281 98.6817 241.34 102.702C238.324 106.834 234.229 109.44 229.204 110.483C223.136 111.748 218.148 109.738 214.127 105.122C213.866 104.824 213.643 104.526 213.42 104.191C210.851 100.431 210.777 96.4481 213.42 92.6509C216.175 88.7421 220.046 86.3596 224.588 85.0567C225.965 84.6844 227.417 84.5727 228.794 84.3494ZM227.343 88.9655C223.88 89.3005 220.977 90.6407 218.818 93.4699C217.366 95.4057 217.142 97.6021 218.185 99.7613C219.934 103.372 222.95 105.531 226.933 105.829C230.954 106.127 234.155 104.266 236.426 101.027C237.692 99.2029 237.878 97.1554 236.835 95.1824C234.862 91.3852 231.661 89.3005 227.343 88.9655Z" fill="#026DB7"/>
<path d="M256.156 62.1248C256.491 61.9015 256.752 61.7526 257.012 61.5664C259.879 59.5562 262.708 57.5459 265.574 55.6101C267.547 54.27 269.744 53.451 272.126 52.967C274.285 52.5203 276.37 52.7809 278.455 53.3765C281.656 54.3072 284.262 56.1685 286.421 58.7C286.459 58.7744 286.533 58.8116 286.57 58.8861C289.4 62.6088 289.288 66.0709 286.272 69.6446C285.677 70.352 284.97 71.022 284.188 71.5804C281.284 73.7768 278.343 75.8988 275.402 78.0579C275.142 78.244 274.844 78.3557 274.472 78.5791C272.759 77.4623 271.345 75.936 269.818 74.5958C268.255 73.2556 266.766 71.841 265.202 70.5009C263.713 69.1979 262.224 67.895 260.772 66.5548C259.283 65.1402 257.571 63.9862 256.156 62.1248ZM263.639 62.1993C263.974 62.6088 264.123 62.9066 264.346 63.0927C267.659 66.0336 270.972 68.9746 274.285 71.8783C274.621 72.1761 275.067 72.325 275.402 72.5483C275.737 72.3994 275.961 72.2878 276.184 72.1761C277.226 71.4315 278.269 70.7242 279.274 69.9797C280.018 69.4213 280.8 68.8629 281.47 68.1556C283.406 66.1453 283.592 63.9862 281.917 61.7526C281.061 60.6358 280.018 59.6306 278.864 58.8116C275.477 56.3174 272.089 56.243 268.515 58.5138C267.138 59.4073 265.798 60.4124 264.458 61.3803C264.16 61.5292 264.011 61.7898 263.639 62.1993Z" fill="#026DB7"/>
<path d="M214.35 50.5471C214.536 50.2493 214.536 50.1749 214.611 50.1376C218.371 47.6807 222.131 45.1493 225.965 42.7667C226.896 42.2083 228.013 41.9105 229.055 41.6127C232.778 40.5704 235.719 41.985 238.138 44.7398C239.33 46.1171 239.478 47.7179 238.883 49.4303C238.697 49.9515 238.473 50.4355 238.25 50.9939C239.925 52.0734 241.786 52.0362 243.499 52.5202C245.211 53.0041 247.035 53.1902 248.86 53.8603C248.376 54.791 247.482 55.0888 246.849 55.61C246.365 55.9823 245.807 56.3173 245.286 56.6523C244.802 56.9874 244.281 57.0246 243.722 56.8757C241.042 56.2056 238.324 55.7217 235.644 54.9771C234.043 54.5304 232.703 54.7165 231.437 55.7961C230.805 56.3545 229.837 56.5779 229.502 57.6947C231.14 59.6677 233.373 61.2312 235.272 63.3159C234.081 64.6189 232.703 65.3262 231.289 66.2196C230.916 65.959 230.47 65.7729 230.135 65.4751C225.146 60.859 220.158 56.2056 215.169 51.5523C214.872 51.2544 214.648 50.9194 214.35 50.5471ZM221.572 50.3982C223.024 52.0362 224.513 53.4508 226.151 54.6049C226.486 54.5304 226.747 54.5304 226.933 54.4187C228.72 53.2647 230.507 52.0734 232.256 50.8822C232.629 50.6216 232.964 50.2493 233.262 49.8771C233.894 49.0581 233.894 48.0902 233.373 47.234C232.48 45.8566 230.618 45.112 229.055 45.5587C228.534 45.7077 227.975 45.8938 227.529 46.1916C225.742 47.3456 223.955 48.4997 222.168 49.6909C221.945 49.7654 221.833 50.026 221.572 50.3982Z" fill="#026DB7"/>
<path d="M251.801 88.9657C252.471 90.5292 253.103 92.0555 253.774 93.6563C252.582 95.1453 250.944 96.076 249.269 97.1184C248.971 96.5972 248.636 96.2621 248.487 95.8527C245.733 89.1146 243.015 82.3393 240.297 75.564C240.186 75.2662 240.037 74.9684 239.962 74.6706C239.814 74.075 239.925 73.591 240.409 73.1815C240.521 73.0698 240.67 72.9582 240.781 72.8837C242.084 72.0275 243.425 71.1713 244.765 70.2778C246.179 70.7618 247.631 71.1341 249.009 71.6925C255.821 74.3356 262.596 76.9787 269.372 79.659C270.004 79.9196 270.637 80.2174 271.456 80.5897C270.191 82.1532 268.627 83.0466 267.064 84.0518C265.239 83.3072 263.415 82.5999 261.628 81.8926C259.842 82.8233 253.96 87.0299 251.801 88.9657ZM249.939 84.4985C250.237 84.424 250.498 84.424 250.684 84.3123C252.433 83.0839 254.146 81.8554 255.858 80.5897C256.082 80.4408 256.119 80.1057 256.342 79.6962C252.955 78.0582 249.679 76.6064 246.291 75.4151C246.217 75.3779 246.03 75.564 245.881 75.6385C245.881 75.8619 245.807 76.1224 245.881 76.3086C247.036 78.84 248.152 81.3342 249.344 83.8284C249.492 84.089 249.753 84.2751 249.939 84.4985Z" fill="#026DB7"/>
<path d="M288.99 57.9557C290.256 56.7272 291.447 55.9827 292.639 55.2009C293.16 55.3871 293.606 55.536 294.053 55.6849C297.404 56.7644 301.312 55.5732 303.472 52.8556C304.253 51.8877 304.402 50.8082 303.881 49.9892C303.211 48.984 302.206 48.4629 301.052 48.6862C300.047 48.8724 299.079 49.2819 298.148 49.6914C296.51 50.4359 294.872 51.3293 293.234 52.1111C291.261 53.0418 289.214 53.5629 287.017 53.414C284.635 53.2279 282.811 52.0366 281.396 50.2125C280.279 48.7607 280.242 47.0855 281.098 45.522C281.545 44.703 282.103 43.884 282.773 43.2511C285.156 40.9431 287.911 39.3051 291.187 38.5978C293.942 38.0021 296.51 38.4489 298.893 40.1241C298.707 41.1292 297.85 41.3153 297.255 41.7993C296.25 42.6555 295.207 42.9533 293.793 42.581C291.075 41.8365 287.39 43.5489 285.938 45.8942C285.23 47.0483 285.603 48.2395 286.831 48.8724C287.501 49.2074 288.209 49.3563 288.916 49.0957C289.809 48.7979 290.74 48.5001 291.596 48.1278C293.123 47.4205 294.537 46.5643 296.063 45.9314C297.441 45.3358 298.855 44.8146 300.307 44.4796C303.472 43.7351 307.008 45.2614 308.758 48.0161C309.577 49.2819 309.875 50.6593 309.167 52.0739C308.795 52.8556 308.386 53.6374 307.827 54.3075C305.78 56.69 303.323 58.5886 300.307 59.5565C296.473 60.7849 292.713 60.4127 288.99 57.9557Z" fill="#026DB7"/>
<path d="M176.044 80.2544C174.257 80.7755 173.252 81.7062 172.135 82.3763C171.056 83.0464 170.013 83.7537 168.971 84.461C167.854 85.2055 166.737 85.9128 165.583 86.6201C164.355 86.099 163.759 85.0194 162.829 84.1632C163.201 83.7909 163.424 83.4559 163.722 83.2325C168.673 79.9938 173.662 76.755 178.65 73.5163C178.911 73.3302 179.208 73.2185 179.506 73.0696C180.623 73.4791 181.256 74.3725 181.926 75.266C181.293 77.8718 179.841 80.2171 179.357 82.7858C179.841 83.1953 180.214 83.0091 180.549 82.8602C182.038 82.1157 183.638 81.6317 185.314 81.4084C187.361 81.1478 189.26 81.5573 191.009 82.5996C194.025 84.4238 195.03 87.8858 193.429 91.0501C193.168 91.5341 192.908 92.0553 192.573 92.4648C188.776 96.9692 184.085 99.5006 178.054 99.0167C176.305 98.8678 174.667 98.3094 173.475 96.8947C174.294 95.9641 176.305 94.3633 177.049 94.14C177.347 94.0655 177.682 94.0655 177.98 94.1027C178.129 94.1027 178.278 94.2144 178.427 94.2889C181.926 95.8524 184.718 94.4378 187.287 92.1297C188.515 91.0501 188.999 89.5983 188.441 88.0348C187.808 86.3223 186.468 85.3544 184.644 85.2427C183.787 85.1683 182.931 85.3544 182.075 85.5778C180.66 85.9501 179.395 86.6946 178.538 87.8486C177.57 89.1143 176.528 89.1888 175.225 88.5559C174.816 88.3698 174.406 88.1464 173.922 87.9231C174.257 85.3544 175.523 83.1208 176.044 80.2544Z" fill="#026DB7"/>
<path d="M255.709 33.8319C256.826 34.3903 257.608 35.0976 258.427 36.0655C258.017 36.4006 257.72 36.7356 257.347 36.9962C255.3 38.3736 253.252 39.7137 251.242 41.0911C250.647 41.5006 250.125 41.9101 249.418 42.4313C249.641 42.8408 249.753 43.2131 250.014 43.4364C250.833 44.2182 251.689 44.8883 252.508 45.6328C253.141 46.1912 253.774 46.1912 254.444 45.7073C255.077 45.2605 255.747 44.8138 256.417 44.3671C258.65 42.8408 260.847 41.3145 263.118 39.8254C264.383 38.9692 264.607 39.0064 265.835 40.0116C266.282 40.4211 266.691 40.8678 267.175 41.389C266.877 41.724 266.691 41.9846 266.431 42.1335C261.815 45.2978 257.161 48.4993 252.508 51.7008C250.758 50.6584 249.493 49.2438 248.041 48.0526C246.589 46.8241 245.174 45.5211 243.76 44.2926C242.382 43.1014 241.042 41.8729 239.665 40.6816C238.25 39.4159 236.835 38.1874 235.309 36.8101C236.203 35.7677 237.282 35.2465 238.213 34.6137C239.181 33.9436 240.186 33.3107 241.191 32.6779C242.122 32.0823 243.052 31.4494 243.983 30.8538C244.988 30.2209 245.956 29.5508 246.961 28.918C247.966 28.2851 248.971 27.6523 250.014 26.9822C251.205 27.3544 251.949 28.2479 252.88 29.1786C252.21 29.6997 251.763 30.1092 251.242 30.4443C248.86 32.045 246.477 33.5713 244.095 35.1721C243.499 35.5443 242.829 35.8422 242.531 36.6611C243.425 37.9641 244.69 38.8948 246.03 39.8627C246.552 39.6021 247.073 39.4159 247.519 39.1181C249.567 37.778 251.614 36.4006 253.662 35.0604C254.369 34.6137 255.039 34.2414 255.709 33.8319Z" fill="#026DB7"/>
<path d="M267.92 30.1842C269 31.7849 270.489 32.6412 271.866 33.758C273.876 32.7528 275.552 31.4127 277.338 30.2586C279.051 29.1418 280.652 27.8389 282.625 26.871C283.481 27.5411 284.337 28.2484 285.082 28.844C285.044 29.1418 285.044 29.2163 285.044 29.2907C285.007 29.3652 284.97 29.4396 284.933 29.4769C280.838 32.3061 276.743 35.1726 272.648 38.0018C272.201 38.2996 271.717 38.5602 271.159 38.9325C269.074 37.6295 267.362 35.8799 265.463 34.3536C263.527 32.7901 261.666 31.1893 259.805 29.5886C257.943 27.9878 256.007 26.4987 254.183 24.6746C254.481 24.3396 254.667 24.0045 254.965 23.7812C259.209 20.9892 263.453 18.2344 267.697 15.4796C267.808 15.4051 267.994 15.3679 268.218 15.2935C269.297 15.5913 269.93 16.4847 270.935 17.3037C270.451 17.7504 270.116 18.0482 269.744 18.3088C267.511 19.7979 265.24 21.287 263.006 22.776C262.373 23.2228 261.74 23.6695 261.219 24.0418C261.07 24.9352 261.554 25.233 262.001 25.5681C265.016 28.1367 264.346 27.9878 267.362 26.0148C269.372 24.7118 271.345 23.4089 273.318 22.106C273.467 22.0315 273.616 21.9943 273.839 21.8826C274.807 22.2549 275.663 22.925 276.333 24.0045C275.924 24.3768 275.552 24.7863 275.105 25.0841C273.206 26.387 271.308 27.6528 269.409 28.9557C268.888 29.2907 268.441 29.7375 267.92 30.1842Z" fill="#026DB7"/>
<path d="M215.914 60.2638C217.031 60.9339 217.887 61.6784 218.557 62.7952C217.142 64.2471 215.318 65.1405 213.755 66.2946C212.154 67.4486 210.367 68.342 208.878 69.8311C209.176 70.2778 209.362 70.6873 209.66 71.0224C210.963 72.3253 212.266 73.5538 213.569 74.8195C214.202 75.4151 214.797 76.048 215.393 76.6436C214.462 77.9466 213.755 78.4677 211.149 79.8451C209.139 78.2816 207.426 76.3086 205.528 74.5217C203.629 72.7348 201.768 70.9107 199.906 69.0494C198.082 67.2252 196.072 65.55 194.434 63.5026C194.657 63.242 194.769 63.0186 194.955 62.8697C200.13 59.4821 205.267 56.0944 210.479 52.7068C211.633 53.3396 212.415 54.1586 213.271 55.201C212.824 55.6105 212.489 56.02 212.08 56.2806C209.436 58.0302 206.793 59.7799 204.15 61.5295C203.443 62.0135 202.736 62.5347 201.991 63.0931C202.773 64.7683 204.113 65.6989 205.49 66.8157C206.049 66.5179 206.644 66.2946 207.128 65.9595C209.399 64.4705 211.596 62.9814 213.866 61.4923C214.574 61.0456 215.244 60.6733 215.914 60.2638Z" fill="#026DB7"/>
<path d="M208.097 121.427C209.921 120.608 211.112 119.454 212.489 118.523C213.867 117.555 215.17 116.55 216.547 115.582C217.887 114.614 219.227 113.647 220.679 112.604C222.019 113.386 222.987 114.428 223.918 115.768C223.508 116.141 223.173 116.513 222.801 116.774C217.441 120.72 212.117 124.703 206.645 128.612C206.235 128.314 205.9 128.091 205.64 127.83C200.093 122.023 194.583 116.215 189.074 110.408C188.925 110.222 188.813 110.036 188.59 109.701C189.744 108.137 191.531 107.43 192.945 106.35C194.025 106.648 194.509 107.392 195.104 107.988C198.753 111.748 202.364 115.545 206.012 119.305C206.645 120.012 207.315 120.682 208.097 121.427Z" fill="#026DB7"/>
<path d="M328.802 22.4307C328.62 22.9524 328.896 23.5223 329.418 23.7036L337.919 26.6579C338.441 26.8392 339.011 26.5633 339.192 26.0416C339.374 25.5199 339.098 24.95 338.576 24.7687L331.019 22.1427L333.645 14.586C333.827 14.0643 333.551 13.4944 333.029 13.3131C332.507 13.1318 331.937 13.4077 331.756 13.9294L328.802 22.4307ZM330.182 23.659C340.721 18.556 356.401 14.1375 369.351 17.1911C375.786 18.7084 381.532 22.0646 385.686 28.1057C389.852 34.164 392.481 43.0164 392.481 55.6328H394.481C394.481 42.7552 391.799 33.4655 387.334 26.9725C382.857 20.4622 376.653 16.858 369.81 15.2444C356.204 12.0363 340.017 16.6749 329.311 21.8589L330.182 23.659Z" fill="black"/>
<path d="M195.604 175.088C195.994 174.698 195.994 174.065 195.604 173.674L189.24 167.31C188.849 166.92 188.216 166.92 187.825 167.31C187.435 167.701 187.435 168.334 187.825 168.724L193.482 174.381L187.825 180.038C187.435 180.429 187.435 181.062 187.825 181.452C188.216 181.843 188.849 181.843 189.24 181.452L195.604 175.088ZM176.939 232.188C173.675 227.375 170.319 221.361 167.845 215.056C165.367 208.741 163.799 202.199 164.045 196.311C164.29 190.45 166.326 185.28 171.028 181.549C175.763 177.792 183.341 175.381 194.897 175.381V173.381C183.104 173.381 175.012 175.835 169.785 179.982C164.527 184.155 162.31 189.928 162.047 196.227C161.784 202.499 163.45 209.333 165.983 215.787C168.519 222.25 171.95 228.395 175.284 233.31L176.939 232.188Z" fill="black"/>
</g>
<rect width="131" height="29" transform="translate(334.955 77.8882)" fill="white" fill-opacity="0.5"/>
<path d="M351.336 89.4642C350.456 89.4642 350.088 89.7362 350.088 90.4882V90.8882H352.936V92.7762H350.088V98.8882H347.176V92.7762H345.208V90.8882H347.176V90.5042C347.176 88.3762 348.376 87.4322 351.112 87.4322C351.736 87.4322 352.216 87.4482 352.936 87.5282V89.4642H351.336ZM358.849 99.0642C355.393 99.0642 353.185 97.4322 353.185 94.8882C353.185 92.3762 355.441 90.7122 358.849 90.7122C362.305 90.7122 364.513 92.3442 364.513 94.8882C364.513 97.4002 362.257 99.0642 358.849 99.0642ZM358.849 97.1762C360.465 97.1762 361.505 96.2642 361.505 94.8882C361.505 93.5122 360.449 92.6002 358.849 92.6002C357.233 92.6002 356.193 93.5122 356.193 94.8882C356.193 96.2642 357.249 97.1762 358.849 97.1762ZM372.09 90.7762C372.474 90.7762 372.938 90.8082 373.306 90.8402V93.0482H371.466C369.738 93.0482 369.018 93.4962 369.018 94.8242V98.8882H366.106V90.8882H368.186L368.794 92.6642C369.45 91.4642 370.618 90.7762 372.09 90.7762ZM390.462 97.0642H390.926V98.8882C390.51 98.9842 389.998 99.0482 389.582 99.0482C388.078 99.0482 387.262 98.4882 387.262 97.4962C386.51 98.4882 385.262 99.0802 383.63 99.0802C381.326 99.0802 379.966 98.1842 379.966 96.6482C379.966 94.9842 381.31 94.1202 384.19 94.1202H385.438C387.022 94.1202 387.166 93.7362 387.166 93.3362C387.166 92.9202 386.782 92.5202 385.086 92.5202C383.95 92.5202 383.294 92.9042 383.086 93.5282H380.286C380.606 91.8162 382.398 90.7122 385.23 90.7122C388.222 90.7122 389.934 91.8002 389.934 93.7042V96.6482C389.934 96.9042 390.126 97.0642 390.462 97.0642ZM384.446 97.2242C385.806 97.2242 387.118 96.3922 387.118 95.3682V95.1602C386.766 95.3842 386.238 95.5282 385.55 95.5282H384.254C383.246 95.5282 382.814 95.8322 382.814 96.3922C382.814 96.9842 383.582 97.2242 384.446 97.2242ZM403.555 89.4642C402.675 89.4642 402.307 89.7362 402.307 90.4882V90.8882H405.155V92.7762H402.307V98.8882H399.395V92.7762H397.427V90.8882H399.395V90.5042C399.395 88.3762 400.595 87.4322 403.331 87.4322C403.955 87.4322 404.435 87.4482 405.155 87.5282V89.4642H403.555ZM416.251 94.7922V95.6082H408.267C408.523 96.7122 409.419 97.3202 410.859 97.3202C412.075 97.3202 412.811 97.0322 413.195 96.3922H416.059C415.627 98.1042 413.771 99.0802 410.859 99.0802C407.275 99.0802 405.403 97.5122 405.403 94.8882C405.403 92.3602 407.547 90.7122 410.859 90.7122C414.203 90.7122 416.251 92.2642 416.251 94.7922ZM410.859 92.5522C409.339 92.5522 408.571 92.9682 408.315 94.0242H413.211C413.067 93.1602 412.123 92.5522 410.859 92.5522ZM417.856 98.8882V87.4482H420.768V98.8882H417.856ZM423.09 98.8882V87.4482H426.002V98.8882H423.09ZM433.27 99.0642C429.814 99.0642 427.606 97.4322 427.606 94.8882C427.606 92.3762 429.862 90.7122 433.27 90.7122C436.726 90.7122 438.934 92.3442 438.934 94.8882C438.934 97.4002 436.678 99.0642 433.27 99.0642ZM433.27 97.1762C434.886 97.1762 435.926 96.2642 435.926 94.8882C435.926 93.5122 434.87 92.6002 433.27 92.6002C431.654 92.6002 430.614 93.5122 430.614 94.8882C430.614 96.2642 431.67 97.1762 433.27 97.1762ZM452.615 90.8882H455.543L452.663 98.8882H449.143L447.447 93.8322L445.815 98.8882H442.295L439.415 90.8882H442.423L444.215 96.7122L446.039 90.8882H448.951L450.791 96.7282L452.615 90.8882Z" fill="black"/>
<rect width="90" height="29" transform="translate(158.031 245.595)" fill="white" fill-opacity="0.5"/>
<path d="M174.42 257.171C173.54 257.171 173.172 257.443 173.172 258.195V258.595H176.02V260.483H173.172V266.595H170.26V260.483H168.292V258.595H170.26V258.211C170.26 256.083 171.46 255.139 174.196 255.139C174.82 255.139 175.3 255.155 176.02 255.235V257.171H174.42ZM181.932 266.771C178.476 266.771 176.268 265.139 176.268 262.595C176.268 260.083 178.524 258.419 181.932 258.419C185.388 258.419 187.596 260.051 187.596 262.595C187.596 265.107 185.34 266.771 181.932 266.771ZM181.932 264.883C183.548 264.883 184.588 263.971 184.588 262.595C184.588 261.219 183.532 260.307 181.932 260.307C180.316 260.307 179.276 261.219 179.276 262.595C179.276 263.971 180.332 264.883 181.932 264.883ZM195.174 258.483C195.558 258.483 196.022 258.515 196.39 258.547V260.755H194.55C192.822 260.755 192.102 261.203 192.102 262.531V266.595H189.19V258.595H191.27L191.878 260.371C192.534 259.171 193.702 258.483 195.174 258.483ZM210.73 258.595H213.914L209.45 267.267C208.538 269.027 207.85 269.795 205.722 269.795H204.042V267.651H205.418C206.09 267.651 206.41 267.363 206.698 266.771L206.874 266.419L202.49 258.595H205.802L208.378 264.035L210.73 258.595ZM219.667 266.771C216.211 266.771 214.003 265.139 214.003 262.595C214.003 260.083 216.259 258.419 219.667 258.419C223.123 258.419 225.331 260.051 225.331 262.595C225.331 265.107 223.075 266.771 219.667 266.771ZM219.667 264.883C221.283 264.883 222.323 263.971 222.323 262.595C222.323 261.219 221.267 260.307 219.667 260.307C218.051 260.307 217.011 261.219 217.011 262.595C217.011 263.971 218.067 264.883 219.667 264.883ZM233.9 258.595H236.812V266.595H234.732L234.172 264.979C233.484 266.115 232.22 266.771 230.636 266.771C228.3 266.771 226.764 265.491 226.764 263.491V258.595H229.692V263.267C229.692 264.243 230.428 264.819 231.58 264.819C233.004 264.819 233.9 264.035 233.9 262.771V258.595Z" fill="black"/>
<defs>
<linearGradient id="paint0_linear_103_37" x1="648.142" y1="454.408" x2="648.142" y2="214.948" gradientUnits="userSpaceOnUse">
<stop stop-color="#F4FFAF"/>
<stop offset="0.34" stop-color="#F7FFC6"/>
<stop offset="1" stop-color="#FFFFF0"/>
</linearGradient>
<linearGradient id="paint1_linear_103_37" x1="209.301" y1="173.206" x2="334.468" y2="329.388" gradientUnits="userSpaceOnUse">
<stop stop-color="#DEB389"/>
<stop offset="0.073" stop-color="#D6A97E"/>
<stop offset="0.2993" stop-color="#C28F62"/>
<stop offset="0.4294" stop-color="#BA8557"/>
<stop offset="0.5804" stop-color="#AE7B4D"/>
<stop offset="0.9325" stop-color="#96673A"/>
</linearGradient>
<linearGradient id="paint2_linear_103_37" x1="74.5686" y1="221.772" x2="283.821" y2="436.069" gradientUnits="userSpaceOnUse">
<stop offset="0.2822" stop-color="#DEAE79"/>
<stop offset="0.5039" stop-color="#D8A571"/>
<stop offset="0.7437" stop-color="#CE9662"/>
</linearGradient>
<linearGradient id="paint3_linear_103_37" x1="231.624" y1="250.793" x2="516.895" y2="472.962" gradientUnits="userSpaceOnUse">
<stop offset="0.0951" stop-color="#CE9865"/>
<stop offset="0.3971" stop-color="#C48D58"/>
<stop offset="0.8773" stop-color="#AC733C"/>
</linearGradient>
<linearGradient id="paint4_linear_103_37" x1="193.23" y1="90.5518" x2="269.807" y2="269.233" gradientUnits="userSpaceOnUse">
<stop offset="0.2858" stop-color="#DEB389"/>
<stop offset="0.4354" stop-color="#DAAD83"/>
<stop offset="0.6442" stop-color="#CD9D70"/>
<stop offset="0.8712" stop-color="#BA8555"/>
</linearGradient>
<linearGradient id="paint5_linear_103_37" x1="486.008" y1="120.762" x2="376.47" y2="267.023" gradientUnits="userSpaceOnUse">
<stop offset="0.1902" stop-color="#DEB389"/>
<stop offset="0.3794" stop-color="#D9AC81"/>
<stop offset="0.6647" stop-color="#CA996D"/>
<stop offset="0.8957" stop-color="#BA8557"/>
</linearGradient>
<linearGradient id="paint6_linear_103_37" x1="515.663" y1="182.43" x2="515.663" y2="179.306" gradientUnits="userSpaceOnUse">
<stop stop-color="#DEB389"/>
<stop offset="0.276" stop-color="#CE9E72"/>
<stop offset="0.5583" stop-color="#BA8557"/>
</linearGradient>
<linearGradient id="paint7_linear_103_37" x1="258.975" y1="243.834" x2="337.385" y2="146.554" gradientUnits="userSpaceOnUse">
<stop offset="0.1507" stop-color="#FFEAD9"/>
<stop offset="0.4531" stop-color="#FFE0C2"/>
<stop offset="0.8897" stop-color="#FDDBC1"/>
<stop offset="1" stop-color="#FCD9C0"/>
</linearGradient>
<linearGradient id="paint8_linear_103_37" x1="580.814" y1="130.863" x2="276.792" y2="342.632" gradientUnits="userSpaceOnUse">
<stop offset="0.173" stop-color="#CE9865"/>
<stop offset="0.6023" stop-color="#B98252"/>
<stop offset="1" stop-color="#AA7244"/>
</linearGradient>
<linearGradient id="paint9_linear_103_37" x1="539.446" y1="125.328" x2="235.428" y2="337.094" gradientUnits="userSpaceOnUse">
<stop offset="0.1902" stop-color="#DEB389"/>
<stop offset="0.3805" stop-color="#DDB187"/>
<stop offset="0.449" stop-color="#D8AB80"/>
<stop offset="0.4979" stop-color="#CFA075"/>
<stop offset="0.5371" stop-color="#C39164"/>
<stop offset="0.5583" stop-color="#BA8557"/>
</linearGradient>
<linearGradient id="paint10_linear_103_37" x1="547.522" y1="136.916" x2="243.494" y2="348.689" gradientUnits="userSpaceOnUse">
<stop offset="0.0859" stop-color="#DEB389"/>
<stop offset="0.1902" stop-color="#DEB389"/>
<stop offset="0.3366" stop-color="#D7A97F"/>
<stop offset="0.5882" stop-color="#C39063"/>
<stop offset="0.6802" stop-color="#BA8557"/>
</linearGradient>
<linearGradient id="paint11_linear_103_37" x1="30.3617" y1="157.451" x2="299.824" y2="289.891" gradientUnits="userSpaceOnUse">
<stop offset="0.1795" stop-color="#DEB389"/>
<stop offset="0.3133" stop-color="#D0A275"/>
<stop offset="0.4847" stop-color="#C49263"/>
<stop offset="0.6658" stop-color="#BC8858"/>
<stop offset="0.8712" stop-color="#BA8555"/>
</linearGradient>
<linearGradient id="paint12_linear_103_37" x1="22.6207" y1="160.632" x2="298.315" y2="296.136" gradientUnits="userSpaceOnUse">
<stop offset="0.173" stop-color="#CE9865"/>
<stop offset="0.6023" stop-color="#B98252"/>
<stop offset="1" stop-color="#AA7244"/>
</linearGradient>
<linearGradient id="paint13_linear_103_37" x1="27.0102" y1="60.7797" x2="363.196" y2="409.701" gradientUnits="userSpaceOnUse">
<stop offset="0.184" stop-color="#DEAE80"/>
<stop offset="0.4816" stop-color="#CE9865"/>
<stop offset="1" stop-color="#AC7344"/>
</linearGradient>
<linearGradient id="paint14_linear_103_37" x1="65.7196" y1="97.273" x2="422.359" y2="54.3821" gradientUnits="userSpaceOnUse">
<stop offset="0.1507" stop-color="#FFF4E9"/>
<stop offset="0.5232" stop-color="#FFEAD7"/>
<stop offset="0.7175" stop-color="#FFE0C6"/>
<stop offset="1" stop-color="#FFD4B0"/>
</linearGradient>
<clipPath id="clip0_103_37">
<rect width="457.778" height="497.164" fill="white" transform="translate(96.0068 0.551758)"/>
</clipPath>
</defs>
</svg>
